<svg xmlns="http://www.w3.org/2000/svg" viewBox="0 0 202.24 246.89"><defs><style>.cls-1{fill:#152c39;}.cls-2{fill:#e3b99a;}.cls-3{fill:#c15962;}.cls-4{fill:#bb2d58;}.cls-5{fill:#fff;}</style></defs><g id="图层_2" data-name="图层 2"><g id="图层_1-2" data-name="图层 1"><rect class="cls-1" x="39.44" y="20.65" width="162.8" height="207.61" rx="22.86"/><rect class="cls-2" x="60.08" y="68.55" width="138.04" height="74.42" rx="8.32"/><rect class="cls-3" x="120.84" y="105.76" width="31.57" height="63.94" rx="8.03"/><rect class="cls-1" x="54.96" y="186.16" width="18.08" height="60.73" rx="4.61"/><rect class="cls-1" x="80.52" y="176.51" width="18.08" height="60.73" rx="4.61"/><rect class="cls-1" x="57.45" width="18.08" height="60.73" rx="4.61"/><rect class="cls-1" x="80.52" y="7.82" width="18.08" height="60.73" rx="4.61"/><rect class="cls-1" x="42.68" y="25.97" width="18.08" height="60.73" rx="4.61" transform="translate(-4.61 108.06) rotate(-90)"/><rect class="cls-1" x="52.33" y="4.72" width="18.08" height="60.73" rx="4.61" transform="translate(26.29 96.45) rotate(-90)"/><rect class="cls-1" x="86.58" y="81.8" width="8.28" height="31.65" rx="3.97" transform="translate(3.9 198.73) rotate(-96.45)"/><rect class="cls-1" x="170.63" y="81.8" width="8.28" height="31.65" rx="3.97" transform="matrix(0.07, -1, 1, 0.07, 65.83, 265.58)"/><circle class="cls-2" cx="33.94" cy="113.36" r="33.94"/><path class="cls-2" d="M159.75,178.86c-1.66,25.13-20.4,44.35-41.86,42.93s-37.5-22.94-35.84-48.06l15.63,1,17,1.12,16.9,1.12h0l18.13,1.2Z"/><path class="cls-4" d="M136.63,217.46a34.38,34.38,0,0,1-19,4.33c-13.18-.87-24.31-9.32-30.56-21.54,10.19-5.15,21.75-6,32-1.28A35.3,35.3,0,0,1,136.63,217.46Z"/><circle class="cls-3" cx="35.77" cy="113.36" r="16.77"/><circle class="cls-1" cx="100.37" cy="122.43" r="7.39"/><circle class="cls-1" cx="170.2" cy="123.13" r="7.39"/><path class="cls-5" d="M114.66,175.88v11.6a8,8,0,0,1-8,8h-.92a8,8,0,0,1-8-8V174.76Z"/><path class="cls-5" d="M149.7,178.2l-6.87,14.92a8,8,0,0,1-10.65,3.94l-.83-.39A8,8,0,0,1,127.41,186l4.15-9h0Z"/></g></g></svg>